<svg xmlns="http://www.w3.org/2000/svg" viewBox="0 0 24 24" fill="#4D6BFE"><path d="M23.748 9.817a.95.95 0 0 0-.07-.355c-.017-.04-.087-.12-.087-.12s-3.317-2.738-5.926-4.769c-.254-.197-.555-.296-.858-.296a1.4 1.4 0 0 0-.829.268l-.028.02-4.635 3.404-.012.008a3.5 3.5 0 0 1-2.067.668 3.52 3.52 0 0 1-2.177-.75 3.52 3.52 0 0 1-1.29-1.885L5.7 5.944a.48.48 0 0 0-.463-.356H2.09a.475.475 0 0 0-.475.475v12.97c0 .263.213.475.475.475h3.148a.475.475 0 0 0 .475-.475V12.84a3.517 3.517 0 0 1 3.517-3.517c.634 0 1.264.17 1.814.491l.012.007 4.635 2.738c.264.157.561.24.863.24.456 0 .895-.174 1.23-.49l.02-.02 5.756-5.45a.955.955 0 0 0 .188-1.022z"/></svg>
